#!OML:ASF E:/inclinewalkrobotboard/Project1/Captureday1/Session1/subject1.ASF
:FULLY-SPECIFIED
:DEGREES
213
root 0 0 0 2.519162122167753 21.075433545606213 9.03542917781038
lowerback -6.926873349775496 -5.231632138356675 -7.087033108815745
upperback -9.367434777654795 -6.604413574242527 6.920529527559111
thorax -5.810266162625265 -2.194360221448651 11.448214997932137
lowerneck -5.1716375312158505 -8.857725609409304 -7.5952401740399305
upperneck 30.26061389411373 -11.376484138286525 2.136642273554817
head 11.210521389025903 -5.786425190255078 0.4586996548128961
rclavicle -7.092419995773102E-15 5.696336616787615E-15
rhumerus 155.89329018340075 9.013220664494625 -186.8194979513816
rradius 23.783742163336505
rwrist 71.3752605154418
rhand -16.30404767273593 9.382097402845787
rfingers 7.125019999999991
rthumb 9.897822726931933 -20.119806355477
lclavicle 3.741039388937156E-15 -1.41176721815253E-15
lhumerus 68.1819207546278 28.30880461134743 20.517828421127646
lradius 53.39038175123149
lwrist -17.432414460640945
lhand -8.209569124484618 9.507570114995227
lfingers 7.125020000000016
lthumb 17.637052961086017 38.20610745305586
rfemur 163.75003367611367 -217.97700446116573 -185.76091312531088
rtibia 71.07964628898513
rfoot -46.35375282388463 -25.700808425958275
rtoes 49.915853637325384
lfemur -87.39313305077006 17.870902665691215 -61.249035956351904
ltibia 66.00635566831363
lfoot -5.556218419981921 37.892800437922425
ltoes 5.3169788478258875
214
root 0 0 0 5.3247187914392455 24.674092566904523 7.111602779347292
lowerback -7.870668043186852 -5.108546566633416 -6.608800936709903
upperback -9.908115120265201 -6.44133383997699 7.333600184942288
thorax -5.725039082342161 -2.195835582499824 11.635001944724877
lowerneck -4.748559906785717 -9.029408346047727 -7.796314470666715
upperneck 30.723282566558208 -11.561686234613486 1.8803951596847164
head 11.339768205472769 -5.893760969036083 0.3853821073694085
rclavicle -6.574743443454274E-15 5.428119570211167E-15
rhumerus 157.22017295963622 8.684728721851656 -187.38622444879863
rradius 23.593890393166397
rwrist 71.28715059887847
rhand -16.3236404451509 9.173761952764472
rfingers 7.125019999999993
rthumb 9.877369799166663 -20.353279950642612
lclavicle 3.543771136967377E-15 -2.0996041743884242E-15
lhumerus 69.80981936411304 28.645566806652127 20.062717399877233
lradius 53.485110135420925
lwrist -17.266196544966974
lhand -7.748932114099509 9.585956111332639
lfingers 7.125020000000014
lthumb 18.08049374242819 38.23494840217996
rfemur 164.27029238491673 -218.42461330798773 -186.3329521787785
rtibia 70.8731222833164
rfoot -46.246281295578726 -25.664650445922092
rtoes 50.280223927350235
lfemur -87.55543502957958 18.305636255645002 -60.479470288565324
ltibia 66.58402044475633
lfoot -7.089331107100991 37.698388797495205
ltoes 6.0721862761109175
215
root 0 0 0 8.690067548220135 29.73837845791977 4.757960025590291
lowerback -8.921355222679548 -4.947196046353536 -6.013003234148279
upperback -10.520709865684411 -6.221539752619172 7.841594189515289
thorax -5.619356178056201 -2.187870838133759 11.856915351680342
lowerneck -4.190288550289226 -9.247547035970578 -8.012869511194928
upperneck 31.376825474171447 -11.77720390112698 1.437258871624528
head 11.520448977901767 -6.028283049813915 0.2518676322608049
rclavicle -5.9578211937837706E-15 5.117798777385895E-15
rhumerus 158.84181440327214 8.292206869812759 -188.13512887195597
rradius 23.30359545557008
rwrist 71.47175290045584
rhand -16.364728786247095 8.94147746941361
rfingers 7.125019999999994
rthumb 9.835794628917109 -20.618682031976416
lclavicle 3.3783876127418357E-15 -2.8598205116256667E-15
lhumerus 71.6841465996994 29.04865359839205 19.585910134079946
lradius 53.514263436392184
lwrist -17.107018586938015
lhand -7.360298590515908 9.715221541365196
lfingers 7.125020000000013
lthumb 18.45583288116484 38.328247889691056
rfemur 164.53959959141736 -218.71110363552913 -186.81515543108293
rtibia 70.47469547307698
rfoot -46.41681765124147 -25.552306072314625
rtoes 50.90083087858732
lfemur -87.7119512429263 18.840837128897874 -59.635581197408435
ltibia 67.40609746328225
lfoot -8.566436391322176 37.388529960393456
ltoes 6.802533538643069
216
root 0 0 0 13.224897076073098 37.33821267138323 1.4959703139030331
lowerback -10.252632797343459 -4.719020065198103 -5.15312857632679
upperback -11.317501158631885 -5.904915910720771 8.55196248104089
thorax -5.48185502914798 -2.1723496782271994 12.147475484278559
lowerneck -3.3976423565202003 -9.575395924207966 -8.308654142240938
upperneck 32.30445103693462 -12.087846683143429 0.7241731261198701
head 11.773964096357357 -6.228498644593284 0.03290199851422182
rclavicle -4.832150776544644E-15 4.601222641986451E-15
rhumerus 161.49975087348793 7.5470267018474715 -189.40351765997653
rradius 22.64121749309942
rwrist 72.38592196609453
rhand -16.494080023068253 8.579852092479396
rfingers 7.125019999999997
rthumb 9.707546837432474 -21.05096871942892
lclavicle 3.1717646166824337E-15 -4.122500404957681E-15
lhumerus 75.19189792313857 29.835496973093807 18.787270006710408
lradius 53.436630936250964
lwrist -16.864348472038927
lhand -6.903015961101472 9.992046740078319
lfingers 7.125020000000008
lthumb 18.900470976216063 38.57679257753782
rfemur 164.29850606989322 -218.6593426256163 -187.27540491339232
rtibia 69.38937769942149
rfoot -47.22256191145037 -25.301070001032443
rtoes 52.483484229310804
lfemur -87.9312413371797 19.92218172904399 -58.09617247046867
ltibia 69.19316984441917
lfoot -10.505960324336625 36.57814845978396
ltoes 7.838728384026456
